<svg xmlns="http://www.w3.org/2000/svg" xmlns:xlink="http://www.w3.org/1999/xlink" viewBox="0 0 996.19 942.07"><defs><radialGradient id="radial-gradient" cx="497.24" cy="499.84" r="295" gradientUnits="userSpaceOnUse"><stop offset="0" stop-color="#15ccee"/><stop offset="0.21" stop-color="#15b6ee"/><stop offset="0.99" stop-color="#1566ee"/></radialGradient><radialGradient id="radial-gradient-2" cx="497.24" cy="499.84" r="271.68" xlink:href="#radial-gradient"/><radialGradient id="radial-gradient-3" cx="495.13" cy="192.04" r="8.8" xlink:href="#radial-gradient"/><radialGradient id="radial-gradient-4" cx="495.13" cy="750.02" r="8.8" xlink:href="#radial-gradient"/><radialGradient id="radial-gradient-5" cx="472.92" cy="221.91" r="9.29" gradientTransform="translate(21.18 -40.44) rotate(5.01)" xlink:href="#radial-gradient"/><radialGradient id="radial-gradient-6" cx="521.55" cy="777.77" r="9.28" gradientTransform="translate(69.76 -42.49) rotate(5)" xlink:href="#radial-gradient"/><radialGradient id="radial-gradient-7" cx="448.79" cy="225.09" r="9.74" gradientTransform="translate(45.92 -74.53) rotate(10)" xlink:href="#radial-gradient"/><radialGradient id="radial-gradient-8" cx="545.69" cy="774.59" r="9.74" gradientTransform="translate(142.83 -83.01) rotate(10)" xlink:href="#radial-gradient"/><radialGradient id="radial-gradient-9" cx="425.03" cy="230.36" r="10.14" gradientTransform="translate(74.1 -102.15) rotate(15)" xlink:href="#radial-gradient"/><radialGradient id="radial-gradient-10" cx="569.45" cy="769.33" r="10.14" gradientTransform="translate(218.55 -121.18) rotate(15)" xlink:href="#radial-gradient"/><radialGradient id="radial-gradient-11" cx="401.82" cy="237.67" r="10.49" gradientTransform="translate(105.48 -123.06) rotate(19.99)" xlink:href="#radial-gradient"/><radialGradient id="radial-gradient-12" cx="592.66" cy="762.01" r="10.49" gradientTransform="translate(296.48 -156.78) rotate(20.01)" xlink:href="#radial-gradient"/><radialGradient id="radial-gradient-13" cx="379.33" cy="246.99" r="10.79" gradientTransform="translate(139.92 -137.17) rotate(25)" xlink:href="#radial-gradient"/><radialGradient id="radial-gradient-14" cx="615.15" cy="752.69" r="10.78" gradientTransform="translate(375.82 -189.47) rotate(25)" xlink:href="#radial-gradient"/><radialGradient id="radial-gradient-15" cx="357.74" cy="258.23" r="11.02" gradientTransform="matrix(0.87, 0.5, -0.5, 0.87, 177.01, -144.26)" xlink:href="#radial-gradient"/><radialGradient id="radial-gradient-16" cx="636.74" cy="741.45" r="11.02" gradientTransform="translate(456.18 -219.06) rotate(30.01)" xlink:href="#radial-gradient"/><radialGradient id="radial-gradient-17" cx="337.22" cy="271.31" r="11.18" gradientTransform="translate(216.62 -144.36) rotate(35)" xlink:href="#radial-gradient"/><radialGradient id="radial-gradient-18" cx="657.26" cy="728.38" r="11.19" gradientTransform="translate(536.56 -245.25) rotate(35)" xlink:href="#radial-gradient"/><radialGradient id="radial-gradient-19" cx="317.91" cy="286.12" r="11.29" gradientTransform="translate(258.29 -137.41) rotate(40)" xlink:href="#radial-gradient"/><radialGradient id="radial-gradient-20" cx="676.57" cy="713.56" r="11.29" gradientTransform="translate(617.01 -267.95) rotate(40)" xlink:href="#radial-gradient"/><radialGradient id="radial-gradient-21" cx="299.96" cy="302.56" r="11.32" gradientTransform="translate(301.79 -123.49) rotate(45)" xlink:href="#radial-gradient"/><radialGradient id="radial-gradient-22" cx="694.52" cy="697.12" r="11.32" gradientTransform="translate(696.33 -286.92) rotate(45)" xlink:href="#radial-gradient"/><radialGradient id="radial-gradient-23" cx="283.52" cy="320.51" r="11.29" gradientTransform="translate(346.78 -102.7) rotate(50)" xlink:href="#radial-gradient"/><radialGradient id="radial-gradient-24" cx="710.96" cy="679.17" r="11.29" gradientTransform="translate(774.19 -302.02) rotate(50)" xlink:href="#radial-gradient"/><radialGradient id="radial-gradient-25" cx="268.7" cy="339.82" r="11.18" gradientTransform="translate(392.93 -75.21) rotate(55)" xlink:href="#radial-gradient"/><radialGradient id="radial-gradient-26" cx="725.78" cy="659.86" r="11.19" gradientTransform="translate(850.08 -313.13) rotate(55)" xlink:href="#radial-gradient"/><radialGradient id="radial-gradient-27" cx="255.63" cy="360.35" r="11.02" gradientTransform="translate(439.92 -41.19) rotate(60.01)" xlink:href="#radial-gradient"/><radialGradient id="radial-gradient-28" cx="738.85" cy="639.34" r="11.02" gradientTransform="translate(922.96 -320.22) rotate(59.99)" xlink:href="#radial-gradient"/><radialGradient id="radial-gradient-29" cx="244.39" cy="381.94" r="10.78" gradientTransform="translate(487.23 -0.99) rotate(65)" xlink:href="#radial-gradient"/><radialGradient id="radial-gradient-30" cx="750.09" cy="617.75" r="10.78" gradientTransform="translate(992.86 -323.16) rotate(64.99)" xlink:href="#radial-gradient"/><radialGradient id="radial-gradient-31" cx="235.07" cy="404.42" r="10.49" gradientTransform="translate(534.75 45.24) rotate(70.01)" xlink:href="#radial-gradient"/><radialGradient id="radial-gradient-32" cx="759.41" cy="595.26" r="10.49" gradientTransform="translate(1058.92 -321.97) rotate(69.99)" xlink:href="#radial-gradient"/><radialGradient id="radial-gradient-33" cx="227.76" cy="427.63" r="10.14" gradientTransform="translate(581.88 96.97) rotate(75)" xlink:href="#radial-gradient"/><radialGradient id="radial-gradient-34" cx="766.72" cy="572.05" r="10.14" gradientTransform="translate(1120.84 -316.61) rotate(75)" xlink:href="#radial-gradient"/><radialGradient id="radial-gradient-35" cx="222.49" cy="451.39" r="9.74" gradientTransform="translate(628.37 153.88) rotate(80)" xlink:href="#radial-gradient"/><radialGradient id="radial-gradient-36" cx="771.99" cy="548.29" r="9.74" gradientTransform="matrix(0.17, 0.98, -0.98, 0.17, 1177.82, -307.22)" xlink:href="#radial-gradient"/><radialGradient id="radial-gradient-37" cx="219.31" cy="475.53" r="9.29" gradientTransform="translate(673.87 215.54) rotate(84.99)" xlink:href="#radial-gradient"/><radialGradient id="radial-gradient-38" cx="775.17" cy="524.16" r="9.28" gradientTransform="translate(1229.79 -293.74) rotate(85)" xlink:href="#radial-gradient"/><radialGradient id="radial-gradient-39" cx="216.14" cy="471.03" r="8.8" xlink:href="#radial-gradient"/><radialGradient id="radial-gradient-40" cx="774.12" cy="471.03" r="8.8" xlink:href="#radial-gradient"/><radialGradient id="radial-gradient-41" cx="219.31" cy="524.16" r="9.29" gradientTransform="translate(46.38 -17.08) rotate(4.99)" xlink:href="#radial-gradient"/><radialGradient id="radial-gradient-42" cx="775.17" cy="475.53" r="9.29" gradientTransform="translate(44.26 -65.58) rotate(4.99)" xlink:href="#radial-gradient"/><radialGradient id="radial-gradient-43" cx="222.49" cy="548.29" r="9.74" gradientTransform="translate(98.72 -30.33) rotate(10.01)" xlink:href="#radial-gradient"/><radialGradient id="radial-gradient-44" cx="771.99" cy="451.39" r="9.74" gradientTransform="translate(90.25 -127.36) rotate(10.01)" xlink:href="#radial-gradient"/><radialGradient id="radial-gradient-45" cx="227.76" cy="572.05" r="10.14" gradientTransform="translate(155.77 -39.45) rotate(15)" xlink:href="#radial-gradient"/><radialGradient id="radial-gradient-46" cx="766.72" cy="427.63" r="10.14" gradientTransform="translate(136.81 -183.88) rotate(15)" xlink:href="#radial-gradient"/><radialGradient id="radial-gradient-47" cx="235.07" cy="595.26" r="10.49" gradientTransform="translate(217.68 -44.5) rotate(19.99)" xlink:href="#radial-gradient"/><radialGradient id="radial-gradient-48" cx="759.41" cy="404.42" r="10.49" gradientTransform="translate(184.03 -235.26) rotate(19.99)" xlink:href="#radial-gradient"/><radialGradient id="radial-gradient-49" cx="244.39" cy="617.75" r="10.78" gradientTransform="translate(284.14 -45.4) rotate(25.01)" xlink:href="#radial-gradient"/><radialGradient id="radial-gradient-50" cx="750.09" cy="381.94" r="10.78" gradientTransform="translate(231.86 -281.35) rotate(25.01)" xlink:href="#radial-gradient"/><radialGradient id="radial-gradient-51" cx="255.63" cy="639.34" r="11.02" gradientTransform="translate(353.86 -42.17) rotate(29.99)" xlink:href="#radial-gradient"/><radialGradient id="radial-gradient-52" cx="738.85" cy="360.35" r="11.02" gradientTransform="translate(279.1 -321.11) rotate(29.99)" xlink:href="#radial-gradient"/><radialGradient id="radial-gradient-53" cx="268.7" cy="659.86" r="11.18" gradientTransform="translate(426.8 -34.85) rotate(34.98)" xlink:href="#radial-gradient"/><radialGradient id="radial-gradient-54" cx="725.78" cy="339.82" r="11.19" gradientTransform="translate(325.89 -354.68) rotate(34.98)" xlink:href="#radial-gradient"/><radialGradient id="radial-gradient-55" cx="283.52" cy="679.17" r="11.29" gradientTransform="translate(502.94 -23.33) rotate(40)" xlink:href="#radial-gradient"/><radialGradient id="radial-gradient-56" cx="710.96" cy="320.51" r="11.29" gradientTransform="translate(372.41 -382.04) rotate(40)" xlink:href="#radial-gradient"/><radialGradient id="radial-gradient-57" cx="299.96" cy="697.12" r="11.32" gradientTransform="translate(580.74 -7.94) rotate(45)" xlink:href="#radial-gradient"/><radialGradient id="radial-gradient-58" cx="694.52" cy="302.56" r="11.32" gradientTransform="translate(417.31 -402.46) rotate(45)" xlink:href="#radial-gradient"/><radialGradient id="radial-gradient-59" cx="317.91" cy="713.56" r="11.29" gradientTransform="translate(660.08 11.31) rotate(49.99)" xlink:href="#radial-gradient"/><radialGradient id="radial-gradient-60" cx="676.57" cy="286.12" r="11.29" gradientTransform="translate(460.76 -416.05) rotate(49.99)" xlink:href="#radial-gradient"/><radialGradient id="radial-gradient-61" cx="337.22" cy="728.38" r="11.19" gradientTransform="translate(740.7 34.51) rotate(55.02)" xlink:href="#radial-gradient"/><radialGradient id="radial-gradient-62" cx="657.26" cy="271.31" r="11.18" gradientTransform="translate(502.73 -422.75) rotate(55.02)" xlink:href="#radial-gradient"/><radialGradient id="radial-gradient-63" cx="357.74" cy="741.45" r="11.02" gradientTransform="translate(821.05 60.95) rotate(60.01)" xlink:href="#radial-gradient"/><radialGradient id="radial-gradient-64" cx="636.74" cy="258.23" r="11.02" gradientTransform="translate(542.06 -422.32) rotate(60.01)" xlink:href="#radial-gradient"/><radialGradient id="radial-gradient-65" cx="379.33" cy="752.69" r="10.78" gradientTransform="translate(901.08 90.71) rotate(64.99)" xlink:href="#radial-gradient"/><radialGradient id="radial-gradient-66" cx="615.15" cy="246.99" r="10.79" gradientTransform="translate(578.88 -414.9) rotate(64.99)" xlink:href="#radial-gradient"/><radialGradient id="radial-gradient-67" cx="401.82" cy="762.01" r="10.49" gradientTransform="translate(980.53 123.88) rotate(70.01)" xlink:href="#radial-gradient"/><radialGradient id="radial-gradient-68" cx="592.66" cy="237.67" r="10.49" gradientTransform="translate(613.39 -400.53) rotate(70.01)" xlink:href="#radial-gradient"/><radialGradient id="radial-gradient-69" cx="425.03" cy="769.33" r="10.14" gradientTransform="translate(1058.14 159.67) rotate(75)" xlink:href="#radial-gradient"/><radialGradient id="radial-gradient-70" cx="569.45" cy="230.36" r="10.14" gradientTransform="translate(644.58 -379.31) rotate(75)" xlink:href="#radial-gradient"/><radialGradient id="radial-gradient-71" cx="448.79" cy="774.59" r="9.74" gradientTransform="translate(1133.56 197.96) rotate(79.99)" xlink:href="#radial-gradient"/><radialGradient id="radial-gradient-72" cx="545.69" cy="225.09" r="9.74" gradientTransform="translate(672.46 -351.42) rotate(79.99)" xlink:href="#radial-gradient"/><radialGradient id="radial-gradient-73" cx="472.92" cy="777.77" r="9.29" gradientTransform="translate(1206.65 239.04) rotate(85.01)" xlink:href="#radial-gradient"/><radialGradient id="radial-gradient-74" cx="521.55" cy="221.91" r="9.29" gradientTransform="translate(697.3 -316.96) rotate(85.01)" xlink:href="#radial-gradient"/><radialGradient id="radial-gradient-75" cx="422.31" cy="405.33" r="611.63" xlink:href="#radial-gradient"/><radialGradient id="radial-gradient-76" cx="525.46" cy="499.84" r="206.76" gradientUnits="userSpaceOnUse"><stop offset="0" stop-color="#15ccee"/><stop offset="0.57" stop-color="#877aea"/><stop offset="0.99" stop-color="#d83fe8"/></radialGradient><linearGradient id="linear-gradient" x1="172.7" y1="501.39" x2="821.18" y2="501.39" xlink:href="#radial-gradient"/><radialGradient id="radial-gradient-77" cx="137.81" cy="499.85" r="347.31" xlink:href="#radial-gradient"/><radialGradient id="radial-gradient-78" cx="862.6" cy="499.84" r="347.24" xlink:href="#radial-gradient"/></defs><title>1</title><g style="isolation:isolate"><g id="Слой_1" data-name="Слой 1"><path d="M213.49,779.23A393.89,393.89,0,0,0,492.89,895C711.11,895,888,718.06,888,499.84S711.11,104.72,492.89,104.72V499.84Z" transform="translate(-2.11 -28.81)" style="fill:#4dffff;opacity:0.1;mix-blend-mode:screen"/><path d="M492.89,234.9C346.57,234.9,228,353.52,228,499.84S346.57,764.78,492.89,764.78,757.82,646.16,757.82,499.84,639.21,234.9,492.89,234.9Zm0,518.52c-140,0-253.58-113.53-253.58-253.58S352.84,246.26,492.89,246.26,746.46,359.79,746.46,499.84,632.93,753.42,492.89,753.42Z" transform="translate(-2.11 -28.81)" style="fill:#4dffff;opacity:0.1;mix-blend-mode:screen"/><path d="M497.24,794.84c-162.66,0-295-132.34-295-295s132.34-295,295-295,295,132.34,295,295S659.9,794.84,497.24,794.84Zm0-581.3c-157.87,0-286.3,128.43-286.3,286.3s128.43,286.3,286.3,286.3,286.3-128.43,286.3-286.3S655.1,213.54,497.24,213.54Z" transform="translate(-2.11 -28.81)" style="fill:url(#radial-gradient)"/><path d="M497.24,771.52c-149.8,0-271.68-121.87-271.68-271.68S347.44,228.16,497.24,228.16,768.92,350,768.92,499.84,647.05,771.52,497.24,771.52Zm0-534.66c-145,0-263,118-263,263s118,263,263,263,263-118,263-263S642.25,236.86,497.24,236.86Z" transform="translate(-2.11 -28.81)" style="fill:url(#radial-gradient-2)"/><rect x="490.78" y="180.38" width="8.7" height="23.32" style="fill:url(#radial-gradient-3)"/><rect x="490.78" y="738.37" width="8.7" height="23.32" style="fill:url(#radial-gradient-4)"/><rect x="468.57" y="210.25" width="8.7" height="23.32" transform="translate(-19.68 13.33) rotate(-5.01)" style="fill:url(#radial-gradient-5)"/><rect x="517.2" y="766.11" width="8.7" height="23.31" transform="translate(-67.9 19.6) rotate(-5)" style="fill:url(#radial-gradient-6)"/><rect x="444.44" y="213.43" width="8.7" height="23.32" transform="translate(-34.38 52.56) rotate(-10)" style="fill:url(#radial-gradient-7)"/><rect x="541.33" y="762.93" width="8.7" height="23.32" transform="translate(-128.35 77.75) rotate(-10)" style="fill:url(#radial-gradient-8)"/><rect x="420.68" y="218.7" width="8.7" height="23.32" transform="translate(-47.25 89.04) rotate(-15)" style="fill:url(#radial-gradient-9)"/><rect x="565.1" y="757.67" width="8.7" height="23.32" transform="translate(-181.84 144.82) rotate(-15)" style="fill:url(#radial-gradient-10)"/><rect x="397.47" y="226.02" width="8.7" height="23.32" transform="translate(-59.16 122.9) rotate(-19.99)" style="fill:url(#radial-gradient-11)"/><rect x="588.31" y="750.35" width="8.7" height="23.32" transform="translate(-227.05 219.95) rotate(-20.01)" style="fill:url(#radial-gradient-12)"/><rect x="374.98" y="235.33" width="8.7" height="23.32" transform="translate(-70.95 154.65) rotate(-25)" style="fill:url(#radial-gradient-13)"/><rect x="610.8" y="741.03" width="8.7" height="23.32" transform="translate(-262.61 301.76) rotate(-25)" style="fill:url(#radial-gradient-14)"/><rect x="353.39" y="246.57" width="8.71" height="23.32" transform="translate(-83.29 184.63) rotate(-30)" style="fill:url(#radial-gradient-15)"/><rect x="632.38" y="729.8" width="8.71" height="23.32" transform="matrix(0.87, -0.5, 0.5, 0.87, -287.58, 389.04)" style="fill:url(#radial-gradient-16)"/><rect x="332.86" y="259.65" width="8.7" height="23.32" transform="translate(-96.74 213.7) rotate(-35)" style="fill:url(#radial-gradient-17)"/><rect x="652.91" y="716.72" width="8.7" height="23.32" transform="translate(-301 479.83) rotate(-35)" style="fill:url(#radial-gradient-18)"/><rect x="313.56" y="274.46" width="8.7" height="23.32" transform="translate(-111.65 242.48) rotate(-40)" style="fill:url(#radial-gradient-19)"/><rect x="672.22" y="701.9" width="8.7" height="23.32" transform="matrix(0.77, -0.64, 0.64, 0.77, -302.5, 573.08)" style="fill:url(#radial-gradient-20)"/><rect x="295.61" y="290.9" width="8.7" height="23.32" transform="translate(-128.2 271.91) rotate(-45)" style="fill:url(#radial-gradient-21)"/><rect x="690.16" y="685.46" width="8.7" height="23.31" transform="translate(-291.63 666.44) rotate(-45)" style="fill:url(#radial-gradient-22)"/><rect x="279.17" y="308.85" width="8.7" height="23.32" transform="translate(-146.36 302.85) rotate(-50)" style="fill:url(#radial-gradient-23)"/><rect x="706.61" y="667.51" width="8.7" height="23.32" transform="translate(-268.43 758.37) rotate(-50)" style="fill:url(#radial-gradient-24)"/><rect x="264.35" y="328.16" width="8.7" height="23.32" transform="translate(-165.89 336.19) rotate(-55)" style="fill:url(#radial-gradient-25)"/><rect x="721.42" y="648.2" width="8.7" height="23.32" transform="translate(-233.13 847.16) rotate(-55)" style="fill:url(#radial-gradient-26)"/><rect x="251.27" y="348.69" width="8.71" height="23.32" transform="translate(-186.36 372.79) rotate(-60.01)" style="fill:url(#radial-gradient-27)"/><rect x="734.5" y="627.68" width="8.71" height="23.32" transform="translate(-186.41 930.59) rotate(-59.99)" style="fill:url(#radial-gradient-28)"/><rect x="240.04" y="370.28" width="8.7" height="23.32" transform="translate(-207.16 413.18) rotate(-65)" style="fill:url(#radial-gradient-29)"/><rect x="745.74" y="606.09" width="8.7" height="23.32" transform="translate(-128.93 1007.59) rotate(-64.99)" style="fill:url(#radial-gradient-30)"/><rect x="230.72" y="392.76" width="8.7" height="23.32" transform="translate(-227.46 458.24) rotate(-70.01)" style="fill:url(#radial-gradient-31)"/><rect x="755.06" y="583.6" width="8.7" height="23.32" transform="translate(-61.86 1076.37) rotate(-69.99)" style="fill:url(#radial-gradient-32)"/><rect x="223.4" y="415.97" width="8.7" height="23.32" transform="translate(-246.36 508.16) rotate(-75)" style="fill:url(#radial-gradient-33)"/><rect x="762.37" y="560.39" width="8.7" height="23.32" transform="translate(13.61 1135.78) rotate(-75)" style="fill:url(#radial-gradient-34)"/><rect x="218.14" y="439.74" width="8.7" height="23.32" transform="translate(-262.8 563.29) rotate(-80)" style="fill:url(#radial-gradient-35)"/><rect x="767.64" y="536.63" width="8.7" height="23.32" transform="translate(95.82 1184.48) rotate(-80)" style="fill:url(#radial-gradient-36)"/><rect x="214.96" y="463.87" width="8.7" height="23.32" transform="translate(-275.65 623.68) rotate(-84.99)" style="fill:url(#radial-gradient-37)"/><rect x="770.82" y="512.5" width="8.7" height="23.31" transform="translate(183.35 1221.9) rotate(-85)" style="fill:url(#radial-gradient-38)"/><rect x="204.48" y="466.68" width="23.32" height="8.7" style="fill:url(#radial-gradient-39)"/><rect x="762.46" y="466.68" width="23.32" height="8.7" style="fill:url(#radial-gradient-40)"/><rect x="207.65" y="519.8" width="23.32" height="8.7" transform="translate(-46.83 -7.76) rotate(-4.99)" style="fill:url(#radial-gradient-41)"/><rect x="763.51" y="471.17" width="23.31" height="8.7" transform="translate(-40.51 40.37) rotate(-4.99)" style="fill:url(#radial-gradient-42)"/><rect x="210.83" y="543.94" width="23.32" height="8.7" transform="translate(-94.05 18.23) rotate(-10.01)" style="fill:url(#radial-gradient-43)"/><rect x="760.33" y="447.04" width="23.32" height="8.7" transform="translate(-68.84 112.3) rotate(-10.01)" style="fill:url(#radial-gradient-44)"/><rect x="216.1" y="567.7" width="23.32" height="8.7" transform="translate(-142.36 49.6) rotate(-15)" style="fill:url(#radial-gradient-45)"/><rect x="755.07" y="423.28" width="23.32" height="8.7" transform="translate(-86.67 184.22) rotate(-15)" style="fill:url(#radial-gradient-46)"/><rect x="223.41" y="590.91" width="23.32" height="8.7" transform="translate(-191.45 87.43) rotate(-19.99)" style="fill:url(#radial-gradient-47)"/><rect x="747.75" y="400.07" width="23.31" height="8.7" transform="translate(-94.61 255.19) rotate(-19.99)" style="fill:url(#radial-gradient-48)"/><rect x="232.73" y="613.4" width="23.32" height="8.7" transform="translate(-240.4 132.48) rotate(-25.01)" style="fill:url(#radial-gradient-49)"/><rect x="738.43" y="377.58" width="23.32" height="8.7" transform="translate(-93.25 324.2) rotate(-25.01)" style="fill:url(#radial-gradient-50)"/><rect x="243.97" y="634.98" width="23.32" height="8.71" transform="translate(-287.49 184.61) rotate(-29.99)" style="fill:url(#radial-gradient-51)"/><rect x="727.2" y="355.99" width="23.32" height="8.71" transform="translate(-83.3 388.82) rotate(-29.99)" style="fill:url(#radial-gradient-52)"/><rect x="257.05" y="655.51" width="23.32" height="8.7" transform="translate(-331.84 244.41) rotate(-34.98)" style="fill:url(#radial-gradient-53)"/><rect x="714.11" y="335.47" width="23.32" height="8.7" transform="translate(-65.82 448.62) rotate(-34.98)" style="fill:url(#radial-gradient-54)"/><rect x="271.86" y="674.82" width="23.32" height="8.7" transform="translate(-372.36 312.38) rotate(-40)" style="fill:url(#radial-gradient-55)"/><rect x="699.3" y="316.16" width="23.32" height="8.7" transform="translate(-41.78 503.24) rotate(-40)" style="fill:url(#radial-gradient-56)"/><rect x="288.3" y="692.77" width="23.32" height="8.7" transform="translate(-407.17 387.43) rotate(-45)" style="fill:url(#radial-gradient-57)"/><rect x="682.86" y="298.21" width="23.32" height="8.7" transform="translate(-12.65 550.86) rotate(-45)" style="fill:url(#radial-gradient-58)"/><rect x="306.25" y="709.21" width="23.32" height="8.7" transform="translate(-435.14 469.51) rotate(-49.99)" style="fill:url(#radial-gradient-59)"/><rect x="664.91" y="281.77" width="23.32" height="8.7" transform="translate(20.34 591.59) rotate(-49.99)" style="fill:url(#radial-gradient-60)"/><rect x="325.56" y="724.02" width="23.32" height="8.7" transform="translate(-455.01 558.31) rotate(-55.02)" style="fill:url(#radial-gradient-61)"/><rect x="645.6" y="266.95" width="23.32" height="8.7" transform="translate(56.04 625.47) rotate(-55.02)" style="fill:url(#radial-gradient-62)"/><rect x="346.09" y="737.1" width="23.32" height="8.71" transform="translate(-465.36 651.81) rotate(-60.01)" style="fill:url(#radial-gradient-63)"/><rect x="625.07" y="253.88" width="23.32" height="8.71" transform="translate(92.66 651.78) rotate(-60.01)" style="fill:url(#radial-gradient-64)"/><rect x="367.68" y="748.34" width="23.32" height="8.7" transform="translate(-465.26 749.44) rotate(-64.99)" style="fill:url(#radial-gradient-65)"/><rect x="603.49" y="242.64" width="23.32" height="8.7" transform="translate(129.12 671.21) rotate(-64.99)" style="fill:url(#radial-gradient-66)"/><rect x="390.16" y="757.66" width="23.31" height="8.7" transform="translate(-453.76 850.28) rotate(-70.01)" style="fill:url(#radial-gradient-67)"/><rect x="581" y="233.32" width="23.32" height="8.7" transform="translate(164.58 684.56) rotate(-70.01)" style="fill:url(#radial-gradient-68)"/><rect x="413.38" y="764.97" width="23.32" height="8.7" transform="translate(-430.19 951.96) rotate(-75)" style="fill:url(#radial-gradient-69)"/><rect x="557.79" y="226" width="23.32" height="8.7" transform="translate(197.46 691.98) rotate(-75)" style="fill:url(#radial-gradient-70)"/><rect x="437.13" y="770.24" width="23.32" height="8.7" transform="matrix(0.17, -0.98, 0.98, 0.17, -394.14, 1053.07)" style="fill:url(#radial-gradient-71)"/><rect x="534.03" y="220.74" width="23.32" height="8.7" transform="translate(227.03 694.51) rotate(-79.99)" style="fill:url(#radial-gradient-72)"/><rect x="461.27" y="773.42" width="23.31" height="8.7" transform="translate(-345.11 1152.5) rotate(-85.01)" style="fill:url(#radial-gradient-73)"/><rect x="509.9" y="217.56" width="23.32" height="8.7" transform="translate(253.05 693.4) rotate(-85.01)" style="fill:url(#radial-gradient-74)"/><path d="M492.89,704.32c-112.75,0-204.48-91.73-204.48-204.48s91.73-204.48,204.48-204.48,204.48,91.73,204.48,204.48S605.64,704.32,492.89,704.32Zm0-399.76c-107.68,0-195.28,87.6-195.28,195.28s87.6,195.28,195.28,195.28,195.28-87.6,195.28-195.28S600.57,304.56,492.89,304.56Z" transform="translate(-2.11 -28.81)" style="fill:url(#radial-gradient-75)"/><path d="M492.89,722.24A220.91,220.91,0,0,1,335.63,657.1l19.52-19.52A194.79,194.79,0,0,0,687.68,499.84c0-107.41-87.38-194.79-194.79-194.79V277.44c122.63,0,222.4,99.77,222.4,222.4a222.4,222.4,0,0,1-222.4,222.4Z" transform="translate(-2.11 -28.81)" style="fill:url(#radial-gradient-76)"/><polyline points="493.23 209.46 493.23 472.08 333.52 628.29" style="fill:none;stroke:#fff;stroke-linecap:round;stroke-linejoin:round"/><path d="M496.94,179.15a321.22,321.22,0,1,1-125.43,25.32,320.29,320.29,0,0,1,125.43-25.32m0-2c-179.08,0-324.24,145.17-324.24,324.24S317.86,825.63,496.94,825.63,821.18,680.46,821.18,501.39,676,177.15,496.94,177.15Z" transform="translate(-2.11 -28.81)" style="fill:url(#linear-gradient)"/><path d="M273.51,28.82A513.09,513.09,0,0,0,4.33,300.27L3.84,299,51.9,322l.57.27v355.2l-.57.27-48.06,23,.49-1.29A513.59,513.59,0,0,0,273.52,970.85v0a514.53,514.53,0,0,1-271-270.68l-.37-.88L3,698.9l48.07-23-.57.9V322.87l.57.9L3,300.78l-.86-.41.37-.88a514.59,514.59,0,0,1,271-270.67Z" transform="translate(-2.11 -28.81)" style="fill:url(#radial-gradient-77)"/><path d="M726.9,970.86A513.23,513.23,0,0,0,996.08,699.41l.49,1.3-48.06-23-.57-.27V322.24l.57-.27,48.06-23-.49,1.29A513.59,513.59,0,0,0,726.89,28.83v0a514.41,514.41,0,0,1,271,270.68l.38.88-.86.41-48.07,23,.57-.9V676.81l-.57-.9,48.07,23,.86.42-.38.88a514.65,514.65,0,0,1-271,270.66Z" transform="translate(-2.11 -28.81)" style="fill:url(#radial-gradient-78)"/></g></g></svg>